<!-- Generated by IcoMoon.io -->
<svg version="1.1" xmlns="http://www.w3.org/2000/svg" width="32" height="32" viewBox="0 0 32 32">
<title>like</title>
<path d="M31.564 20.577c0.025-0.852-0.449-1.81-1.512-2.332 0.639-0.197 1.157-0.581 1.508-1.134 0.536-0.842 0.587-1.985 0.128-2.844-0.381-0.715-1.065-1.138-1.88-1.171-3.877-1.16-6.099-1.376-7.866-1.397 0.139-0.483 0.499-1.075 0.877-1.691 0.554-0.903 1.183-1.926 1.393-2.984 0.359-1.199 0.434-3.69-0.546-5.232-0.42-0.661-0.977-1.047-1.656-1.147-0.243-0.034-0.567 0.086-0.829 0.312-0.338 0.291-0.525 0.708-0.526 1.176-0.015 5.215-5.636 7.732-7.358 8.379-1.020 0.383-2.649 2.050-3.055 4.184-0.059 0.307-1.154 0.357-2.378 0.319 0.362-0.504 0.628-0.772 0.628-0.772l-5.493-0.299c-3.135 2.826-3.12 5.991-2.928 8.875 0.238 3.567 2.928 6.207 2.928 6.207l5.493 0.099c-0.19-0.29-0.367-0.577-0.533-0.861 0.594 0.042 1.111 0.158 1.576 0.414 0.312 0.172 0.599 0.508 0.901 0.863 0.623 0.731 1.397 1.639 2.882 1.699 0.85 0 1.93 0.023 3.119 0.050 1.443 0.032 3.073 0.068 4.647 0.068 1.428 0 2.812-0.030 3.972-0.119 0.093-0.007 0.227-0.011 0.391-0.015 1.295-0.038 4.328-0.125 4.385-2.202 0.019-0.679-0.298-1.358-0.809-1.822 1.344-0.221 2.006-1.168 2.062-2.131 0.052-0.875-0.399-1.812-1.259-2.285 1.159-0.401 1.712-1.324 1.737-2.208zM28.059 13.128c-0.248 0.011-0.497 0.022-0.744 0.035-1.357 0.071-2.759 0.146-3.898-0.065-0.834-0.154-1.334-0.403-1.484-0.74-0.021-0.048-0.029-0.101-0.038-0.154 1.48 0.015 3.285 0.168 6.164 0.924zM2.598 16.841c0-0.717 0.581-1.298 1.298-1.298s1.298 0.581 1.298 1.298c0 0.717-0.581 1.298-1.298 1.298s-1.298-0.581-1.298-1.298zM28.75 22.482c-0.099 0.006-0.182 0.068-0.217 0.155-0.030-0.309-0.087-0.611-0.15-0.891-0.032-0.136-0.166-0.221-0.301-0.191-0.136 0.031-0.221 0.165-0.191 0.301 0.131 0.581 0.254 1.249 0.066 1.843-0.042 0.132 0.032 0.274 0.164 0.316 0.025 0.008 0.051 0.012 0.076 0.012 0.107 0 0.206-0.068 0.24-0.176 0.105-0.33 0.127-0.666 0.112-0.997 0.040 0.071 0.11 0.124 0.197 0.131 1.267 0.098 1.891 1.133 1.837 2.057-0.049 0.827-0.703 1.781-2.34 1.702-0.034-0.001-0.055 0.017-0.083 0.026-0.001-0.026-0.002-0.051-0.003-0.076-0.012-0.217-0.023-0.442-0.004-0.663 0.012-0.138-0.091-0.26-0.23-0.273-0.14-0.015-0.26 0.091-0.273 0.23-0.021 0.254-0.009 0.497 0.003 0.732 0.020 0.398 0.038 0.741-0.115 1.028-0.066 0.123-0.019 0.275 0.103 0.341 0.038 0.020 0.079 0.030 0.119 0.030 0.090 0 0.177-0.048 0.222-0.133 0.128-0.239 0.169-0.491 0.181-0.744 0.601 0.253 1.189 0.934 1.165 1.769-0.043 1.602-2.743 1.679-3.896 1.712-0.174 0.005-0.317 0.009-0.415 0.017-2.414 0.185-5.827 0.109-8.569 0.050-1.189-0.026-2.269-0.050-3.11-0.050-0.003 0-0.007 0-0.011 0-1.255-0.050-1.892-0.798-2.509-1.522-0.334-0.391-0.649-0.761-1.042-0.977-0.63-0.347-1.313-0.466-2.107-0.491-3.178-5.839-1.423-10.202-0.142-12.236 1.865 0.081 3.079-0.050 3.206-0.722 0.367-1.927 1.852-3.474 2.738-3.806 1.799-0.676 7.669-3.312 7.685-8.849 0.001-0.409 0.191-0.658 0.35-0.795 0.197-0.169 0.377-0.207 0.428-0.196 0.528 0.078 0.967 0.387 1.305 0.92 0.857 1.348 0.835 3.664 0.483 4.84-0.199 0.993-0.801 1.975-1.334 2.843-0.675 1.099-1.258 2.049-0.917 2.816 0.228 0.512 0.817 0.84 1.853 1.030 1.197 0.222 2.631 0.146 4.017 0.072 0.811-0.042 1.644-0.089 2.414-0.068 0.002 0 0.005 0.001 0.007 0.001v0c0.652 0.017 1.177 0.339 1.481 0.906 0.376 0.704 0.332 1.644-0.109 2.336-0.465 0.73-1.314 1.097-2.357 1.047-0.134-0.019-0.253 0.095-0.264 0.23s0.087 0.256 0.221 0.271c1.635 0.193 2.351 1.262 2.324 2.174-0.023 0.889-0.748 1.828-2.308 1.92zM28.325 17.221c0.123 0.65 0.25 1.322 0.001 2.024-0.037 0.103-0.134 0.168-0.238 0.168-0.028 0-0.056-0.005-0.084-0.014-0.131-0.046-0.2-0.191-0.154-0.322 0.204-0.573 0.095-1.151-0.021-1.763-0.026-0.136 0.064-0.268 0.201-0.294 0.14-0.026 0.267 0.065 0.294 0.201z"></path>
</svg>
