<!-- Generated by IcoMoon.io -->
<svg version="1.1" xmlns="http://www.w3.org/2000/svg" width="32" height="32" viewBox="0 0 32 32">
<title>user-avatar</title>
<path d="M16 14.067c3.878 0 7.033-3.155 7.033-7.033s-3.155-7.033-7.033-7.033-7.033 3.155-7.033 7.033 3.155 7.033 7.033 7.033zM16 3.363c2.024 0 3.671 1.647 3.671 3.671s-1.647 3.671-3.671 3.671-3.671-1.647-3.671-3.671 1.647-3.671 3.671-3.671z"></path>
<path d="M16 17.429c-7.107 0-12.89 5.782-12.89 12.89 0 0.928 0.753 1.681 1.681 1.681h22.417c0.928 0 1.681-0.753 1.681-1.681 0-7.107-5.782-12.89-12.89-12.89zM6.621 28.637c0.796-4.454 4.699-7.846 9.379-7.846s8.582 3.392 9.379 7.846h-18.757z"></path>
</svg>
