<svg aria-hidden="true" style="position: absolute; width: 0; height: 0; overflow: hidden;" version="1.1" xmlns="http://www.w3.org/2000/svg" xmlns:xlink="http://www.w3.org/1999/xlink">
<defs>
<symbol id="icon-user-avatar" viewBox="0 0 32 32">
<path d="M16 14.067c3.878 0 7.033-3.155 7.033-7.033s-3.155-7.033-7.033-7.033-7.033 3.155-7.033 7.033 3.155 7.033 7.033 7.033zM16 3.363c2.024 0 3.671 1.647 3.671 3.671s-1.647 3.671-3.671 3.671-3.671-1.647-3.671-3.671 1.647-3.671 3.671-3.671z"></path>
<path d="M16 17.429c-7.107 0-12.89 5.782-12.89 12.89 0 0.928 0.753 1.681 1.681 1.681h22.417c0.928 0 1.681-0.753 1.681-1.681 0-7.107-5.782-12.89-12.89-12.89zM6.621 28.637c0.796-4.454 4.699-7.846 9.379-7.846s8.582 3.392 9.379 7.846h-18.757z"></path>
</symbol>
<symbol id="icon-like" viewBox="0 0 32 32">
<path d="M31.564 20.577c0.025-0.852-0.449-1.81-1.512-2.332 0.639-0.197 1.157-0.581 1.508-1.134 0.536-0.842 0.587-1.985 0.128-2.844-0.381-0.715-1.065-1.138-1.88-1.171-3.877-1.16-6.099-1.376-7.866-1.397 0.139-0.483 0.499-1.075 0.877-1.691 0.554-0.903 1.183-1.926 1.393-2.984 0.359-1.199 0.434-3.69-0.546-5.232-0.42-0.661-0.977-1.047-1.656-1.147-0.243-0.034-0.567 0.086-0.829 0.312-0.338 0.291-0.525 0.708-0.526 1.176-0.015 5.215-5.636 7.732-7.358 8.379-1.020 0.383-2.649 2.050-3.055 4.184-0.059 0.307-1.154 0.357-2.378 0.319 0.362-0.504 0.628-0.772 0.628-0.772l-5.493-0.299c-3.135 2.826-3.12 5.991-2.928 8.875 0.238 3.567 2.928 6.207 2.928 6.207l5.493 0.099c-0.19-0.29-0.367-0.577-0.533-0.861 0.594 0.042 1.111 0.158 1.576 0.414 0.312 0.172 0.599 0.508 0.901 0.863 0.623 0.731 1.397 1.639 2.882 1.699 0.85 0 1.93 0.023 3.119 0.050 1.443 0.032 3.073 0.068 4.647 0.068 1.428 0 2.812-0.030 3.972-0.119 0.093-0.007 0.227-0.011 0.391-0.015 1.295-0.038 4.328-0.125 4.385-2.202 0.019-0.679-0.298-1.358-0.809-1.822 1.344-0.221 2.006-1.168 2.062-2.131 0.052-0.875-0.399-1.812-1.259-2.285 1.159-0.401 1.712-1.324 1.737-2.208zM28.059 13.128c-0.248 0.011-0.497 0.022-0.744 0.035-1.357 0.071-2.759 0.146-3.898-0.065-0.834-0.154-1.334-0.403-1.484-0.74-0.021-0.048-0.029-0.101-0.038-0.154 1.48 0.015 3.285 0.168 6.164 0.924zM2.598 16.841c0-0.717 0.581-1.298 1.298-1.298s1.298 0.581 1.298 1.298c0 0.717-0.581 1.298-1.298 1.298s-1.298-0.581-1.298-1.298zM28.75 22.482c-0.099 0.006-0.182 0.068-0.217 0.155-0.030-0.309-0.087-0.611-0.15-0.891-0.032-0.136-0.166-0.221-0.301-0.191-0.136 0.031-0.221 0.165-0.191 0.301 0.131 0.581 0.254 1.249 0.066 1.843-0.042 0.132 0.032 0.274 0.164 0.316 0.025 0.008 0.051 0.012 0.076 0.012 0.107 0 0.206-0.068 0.24-0.176 0.105-0.33 0.127-0.666 0.112-0.997 0.040 0.071 0.11 0.124 0.197 0.131 1.267 0.098 1.891 1.133 1.837 2.057-0.049 0.827-0.703 1.781-2.34 1.702-0.034-0.001-0.055 0.017-0.083 0.026-0.001-0.026-0.002-0.051-0.003-0.076-0.012-0.217-0.023-0.442-0.004-0.663 0.012-0.138-0.091-0.26-0.23-0.273-0.14-0.015-0.26 0.091-0.273 0.23-0.021 0.254-0.009 0.497 0.003 0.732 0.020 0.398 0.038 0.741-0.115 1.028-0.066 0.123-0.019 0.275 0.103 0.341 0.038 0.020 0.079 0.030 0.119 0.030 0.090 0 0.177-0.048 0.222-0.133 0.128-0.239 0.169-0.491 0.181-0.744 0.601 0.253 1.189 0.934 1.165 1.769-0.043 1.602-2.743 1.679-3.896 1.712-0.174 0.005-0.317 0.009-0.415 0.017-2.414 0.185-5.827 0.109-8.569 0.050-1.189-0.026-2.269-0.050-3.11-0.050-0.003 0-0.007 0-0.011 0-1.255-0.050-1.892-0.798-2.509-1.522-0.334-0.391-0.649-0.761-1.042-0.977-0.63-0.347-1.313-0.466-2.107-0.491-3.178-5.839-1.423-10.202-0.142-12.236 1.865 0.081 3.079-0.050 3.206-0.722 0.367-1.927 1.852-3.474 2.738-3.806 1.799-0.676 7.669-3.312 7.685-8.849 0.001-0.409 0.191-0.658 0.35-0.795 0.197-0.169 0.377-0.207 0.428-0.196 0.528 0.078 0.967 0.387 1.305 0.92 0.857 1.348 0.835 3.664 0.483 4.84-0.199 0.993-0.801 1.975-1.334 2.843-0.675 1.099-1.258 2.049-0.917 2.816 0.228 0.512 0.817 0.84 1.853 1.030 1.197 0.222 2.631 0.146 4.017 0.072 0.811-0.042 1.644-0.089 2.414-0.068 0.002 0 0.005 0.001 0.007 0.001v0c0.652 0.017 1.177 0.339 1.481 0.906 0.376 0.704 0.332 1.644-0.109 2.336-0.465 0.73-1.314 1.097-2.357 1.047-0.134-0.019-0.253 0.095-0.264 0.23s0.087 0.256 0.221 0.271c1.635 0.193 2.351 1.262 2.324 2.174-0.023 0.889-0.748 1.828-2.308 1.92zM28.325 17.221c0.123 0.65 0.25 1.322 0.001 2.024-0.037 0.103-0.134 0.168-0.238 0.168-0.028 0-0.056-0.005-0.084-0.014-0.131-0.046-0.2-0.191-0.154-0.322 0.204-0.573 0.095-1.151-0.021-1.763-0.026-0.136 0.064-0.268 0.201-0.294 0.14-0.026 0.267 0.065 0.294 0.201z"></path>
</symbol>
<symbol id="icon-blogger" viewBox="0 0 32 32">
<path d="M29.931 12h-1.794c-1.099 0-2.062-0.929-2.137-2v0c0-5.708-4.602-10-10.35-10h-5.245c-5.744 0-10.402 4.625-10.406 10.333v11.337c0 5.708 4.662 10.329 10.406 10.329h11.201c5.748 0 10.394-4.621 10.394-10.329v-7.324c0-1.141-0.92-2.346-2.069-2.346zM10 8h6c1.1 0 2 0.9 2 2s-0.9 2-2 2h-6c-1.1 0-2-0.9-2-2s0.9-2 2-2zM22 24h-12c-1.1 0-2-0.9-2-2s0.9-2 2-2h12c1.1 0 2 0.9 2 2s-0.9 2-2 2z"></path>
</symbol>
<symbol id="icon-blogger2" viewBox="0 0 32 32">
<path d="M29 0h-26c-1.65 0-3 1.35-3 3v26c0 1.65 1.35 3 3 3h26c1.65 0 3-1.35 3-3v-26c0-1.65-1.35-3-3-3zM28 20.25c0 4.281-3.481 7.75-7.794 7.75h-8.4c-4.313 0-7.806-3.469-7.806-7.75v-8.5c0-4.281 3.494-7.75 7.806-7.75h3.931c4.313 0 7.762 3.219 7.762 7.5 0.056 0.8 0.781 1.5 1.6 1.5h1.344c0.863 0 1.55 0.906 1.55 1.762v5.488z"></path>
<path d="M22 20c0 1.1-0.9 2-2 2h-8c-1.1 0-2-0.9-2-2v0c0-1.1 0.9-2 2-2h8c1.1 0 2 0.9 2 2v0z"></path>
<path d="M18 12c0 1.1-0.9 2-2 2h-4c-1.1 0-2-0.9-2-2v0c0-1.1 0.9-2 2-2h4c1.1 0 2 0.9 2 2v0z"></path>
</symbol>
<symbol id="icon-bubbles4" viewBox="0 0 36 32">
<path d="M15 4c-1.583 0-3.112 0.248-4.543 0.738-1.341 0.459-2.535 1.107-3.547 1.926-1.876 1.518-2.91 3.463-2.91 5.474 0 1.125 0.315 2.217 0.935 3.247 0.646 1.073 1.622 2.056 2.821 2.842 0.951 0.624 1.592 1.623 1.761 2.748 0.028 0.187 0.051 0.375 0.068 0.564 0.085-0.079 0.169-0.16 0.254-0.244 0.754-0.751 1.771-1.166 2.823-1.166 0.167 0 0.335 0.011 0.503 0.032 0.605 0.077 1.223 0.116 1.836 0.116 1.583 0 3.112-0.248 4.543-0.738 1.341-0.459 2.535-1.107 3.547-1.926 1.876-1.518 2.91-3.463 2.91-5.474s-1.033-3.956-2.91-5.474c-1.012-0.819-2.206-1.467-3.547-1.926-1.431-0.49-2.96-0.738-4.543-0.738zM15 0v0c8.284 0 15 5.435 15 12.139s-6.716 12.139-15 12.139c-0.796 0-1.576-0.051-2.339-0.147-3.222 3.209-6.943 3.785-10.661 3.869v-0.785c2.008-0.98 3.625-2.765 3.625-4.804 0-0.285-0.022-0.564-0.063-0.837-3.392-2.225-5.562-5.625-5.562-9.434 0-6.704 6.716-12.139 15-12.139zM31.125 27.209c0 1.748 1.135 3.278 2.875 4.118v0.673c-3.223-0.072-6.181-0.566-8.973-3.316-0.661 0.083-1.337 0.126-2.027 0.126-2.983 0-5.732-0.805-7.925-2.157 4.521-0.016 8.789-1.464 12.026-4.084 1.631-1.32 2.919-2.87 3.825-4.605 0.961-1.84 1.449-3.799 1.449-5.825 0-0.326-0.014-0.651-0.039-0.974 2.268 1.873 3.664 4.426 3.664 7.24 0 3.265-1.88 6.179-4.82 8.086-0.036 0.234-0.055 0.474-0.055 0.718z"></path>
</symbol>
<symbol id="icon-contrast" viewBox="0 0 32 32">
<path d="M16 0c-8.837 0-16 7.163-16 16s7.163 16 16 16 16-7.163 16-16-7.163-16-16-16zM4 16c0-6.627 5.373-12 12-12v24c-6.627 0-12-5.373-12-12z"></path>
</symbol>
<symbol id="icon-envelop" viewBox="0 0 32 32">
<path d="M29 4h-26c-1.65 0-3 1.35-3 3v20c0 1.65 1.35 3 3 3h26c1.65 0 3-1.35 3-3v-20c0-1.65-1.35-3-3-3zM12.461 17.199l-8.461 6.59v-15.676l8.461 9.086zM5.512 8h20.976l-10.488 7.875-10.488-7.875zM12.79 17.553l3.21 3.447 3.21-3.447 6.58 8.447h-19.579l6.58-8.447zM19.539 17.199l8.461-9.086v15.676l-8.461-6.59z"></path>
</symbol>
<symbol id="icon-facebook2" viewBox="0 0 32 32">
<path d="M29 0h-26c-1.65 0-3 1.35-3 3v26c0 1.65 1.35 3 3 3h13v-14h-4v-4h4v-2c0-3.306 2.694-6 6-6h4v4h-4c-1.1 0-2 0.9-2 2v2h6l-1 4h-5v14h9c1.65 0 3-1.35 3-3v-26c0-1.65-1.35-3-3-3z"></path>
</symbol>
<symbol id="icon-instagram" viewBox="0 0 32 32">
<path d="M16 2.881c4.275 0 4.781 0.019 6.462 0.094 1.563 0.069 2.406 0.331 2.969 0.55 0.744 0.288 1.281 0.638 1.837 1.194 0.563 0.563 0.906 1.094 1.2 1.838 0.219 0.563 0.481 1.412 0.55 2.969 0.075 1.688 0.094 2.194 0.094 6.463s-0.019 4.781-0.094 6.463c-0.069 1.563-0.331 2.406-0.55 2.969-0.288 0.744-0.637 1.281-1.194 1.837-0.563 0.563-1.094 0.906-1.837 1.2-0.563 0.219-1.413 0.481-2.969 0.55-1.688 0.075-2.194 0.094-6.463 0.094s-4.781-0.019-6.463-0.094c-1.563-0.069-2.406-0.331-2.969-0.55-0.744-0.288-1.281-0.637-1.838-1.194-0.563-0.563-0.906-1.094-1.2-1.837-0.219-0.563-0.481-1.413-0.55-2.969-0.075-1.688-0.094-2.194-0.094-6.463s0.019-4.781 0.094-6.463c0.069-1.563 0.331-2.406 0.55-2.969 0.288-0.744 0.638-1.281 1.194-1.838 0.563-0.563 1.094-0.906 1.838-1.2 0.563-0.219 1.412-0.481 2.969-0.55 1.681-0.075 2.188-0.094 6.463-0.094zM16 0c-4.344 0-4.887 0.019-6.594 0.094-1.7 0.075-2.869 0.35-3.881 0.744-1.056 0.412-1.95 0.956-2.837 1.85-0.894 0.888-1.438 1.781-1.85 2.831-0.394 1.019-0.669 2.181-0.744 3.881-0.075 1.713-0.094 2.256-0.094 6.6s0.019 4.887 0.094 6.594c0.075 1.7 0.35 2.869 0.744 3.881 0.413 1.056 0.956 1.95 1.85 2.837 0.887 0.887 1.781 1.438 2.831 1.844 1.019 0.394 2.181 0.669 3.881 0.744 1.706 0.075 2.25 0.094 6.594 0.094s4.888-0.019 6.594-0.094c1.7-0.075 2.869-0.35 3.881-0.744 1.050-0.406 1.944-0.956 2.831-1.844s1.438-1.781 1.844-2.831c0.394-1.019 0.669-2.181 0.744-3.881 0.075-1.706 0.094-2.25 0.094-6.594s-0.019-4.887-0.094-6.594c-0.075-1.7-0.35-2.869-0.744-3.881-0.394-1.063-0.938-1.956-1.831-2.844-0.887-0.887-1.781-1.438-2.831-1.844-1.019-0.394-2.181-0.669-3.881-0.744-1.712-0.081-2.256-0.1-6.6-0.1v0z"></path>
<path d="M16 7.781c-4.537 0-8.219 3.681-8.219 8.219s3.681 8.219 8.219 8.219 8.219-3.681 8.219-8.219c0-4.537-3.681-8.219-8.219-8.219zM16 21.331c-2.944 0-5.331-2.387-5.331-5.331s2.387-5.331 5.331-5.331c2.944 0 5.331 2.387 5.331 5.331s-2.387 5.331-5.331 5.331z"></path>
<path d="M26.462 7.456c0 1.060-0.859 1.919-1.919 1.919s-1.919-0.859-1.919-1.919c0-1.060 0.859-1.919 1.919-1.919s1.919 0.859 1.919 1.919z"></path>
</symbol>
<symbol id="icon-linkedin" viewBox="0 0 32 32">
<path d="M29 0h-26c-1.65 0-3 1.35-3 3v26c0 1.65 1.35 3 3 3h26c1.65 0 3-1.35 3-3v-26c0-1.65-1.35-3-3-3zM12 26h-4v-14h4v14zM10 10c-1.106 0-2-0.894-2-2s0.894-2 2-2c1.106 0 2 0.894 2 2s-0.894 2-2 2zM26 26h-4v-8c0-1.106-0.894-2-2-2s-2 0.894-2 2v8h-4v-14h4v2.481c0.825-1.131 2.087-2.481 3.5-2.481 2.488 0 4.5 2.238 4.5 5v9z"></path>
</symbol>
<symbol id="icon-search" viewBox="0 0 32 32">
<path d="M31.008 27.231l-7.58-6.447c-0.784-0.705-1.622-1.029-2.299-0.998 1.789-2.096 2.87-4.815 2.87-7.787 0-6.627-5.373-12-12-12s-12 5.373-12 12 5.373 12 12 12c2.972 0 5.691-1.081 7.787-2.87-0.031 0.677 0.293 1.515 0.998 2.299l6.447 7.58c1.104 1.226 2.907 1.33 4.007 0.23s0.997-2.903-0.23-4.007zM12 20c-4.418 0-8-3.582-8-8s3.582-8 8-8 8 3.582 8 8-3.582 8-8 8z"></path>
</symbol>
<symbol id="icon-twitter" viewBox="0 0 32 32">
<path d="M32 7.075c-1.175 0.525-2.444 0.875-3.769 1.031 1.356-0.813 2.394-2.1 2.887-3.631-1.269 0.75-2.675 1.3-4.169 1.594-1.2-1.275-2.906-2.069-4.794-2.069-3.625 0-6.563 2.938-6.563 6.563 0 0.512 0.056 1.012 0.169 1.494-5.456-0.275-10.294-2.888-13.531-6.862-0.563 0.969-0.887 2.1-0.887 3.3 0 2.275 1.156 4.287 2.919 5.463-1.075-0.031-2.087-0.331-2.975-0.819 0 0.025 0 0.056 0 0.081 0 3.181 2.263 5.838 5.269 6.437-0.55 0.15-1.131 0.231-1.731 0.231-0.425 0-0.831-0.044-1.237-0.119 0.838 2.606 3.263 4.506 6.131 4.563-2.25 1.762-5.075 2.813-8.156 2.813-0.531 0-1.050-0.031-1.569-0.094 2.913 1.869 6.362 2.95 10.069 2.95 12.075 0 18.681-10.006 18.681-18.681 0-0.287-0.006-0.569-0.019-0.85 1.281-0.919 2.394-2.075 3.275-3.394z"></path>
</symbol>
<symbol id="icon-pencil" viewBox="0 0 32 32">
<path d="M27 0c2.761 0 5 2.239 5 5 0 1.126-0.372 2.164-1 3l-2 2-7-7 2-2c0.836-0.628 1.874-1 3-1zM2 23l-2 9 9-2 18.5-18.5-7-7-18.5 18.5zM22.362 11.362l-14 14-1.724-1.724 14-14 1.724 1.724z"></path>
</symbol>
<symbol id="icon-calendar" viewBox="0 0 32 32">
<path d="M10 12h4v4h-4zM16 12h4v4h-4zM22 12h4v4h-4zM4 24h4v4h-4zM10 24h4v4h-4zM16 24h4v4h-4zM10 18h4v4h-4zM16 18h4v4h-4zM22 18h4v4h-4zM4 18h4v4h-4zM26 0v2h-4v-2h-14v2h-4v-2h-4v32h30v-32h-4zM28 30h-26v-22h26v22z"></path>
</symbol>
<symbol id="icon-undo2" viewBox="0 0 32 32">
<path d="M23.808 32c3.554-6.439 4.153-16.26-9.808-15.932v7.932l-12-12 12-12v7.762c16.718-0.436 18.58 14.757 9.808 24.238z"></path>
</symbol>
</defs>
</svg>
